<svg xmlns="http://www.w3.org/2000/svg" width="34" height="34" viewBox="0 0 512 512" version="1.1"><path d="M 188.449 67.480 L 128.500 126.959 173.419 171.902 L 218.338 216.846 222.798 213.173 C 225.251 211.153, 233.838 203.110, 241.879 195.301 L 256.500 181.101 252.352 176.801 C 241.282 165.325, 229.437 144.834, 224.551 128.706 C 212.836 90.033, 219.914 47.218, 243.218 15.786 C 246.394 11.504, 248.858 8, 248.695 8 C 248.531 8, 221.421 34.766, 188.449 67.480 M 274.660 313.084 L 256.017 331.168 261.684 337.834 C 290.886 372.184, 300.371 417.050, 287.449 459.706 C 284.222 470.355, 275.524 487.664, 268.953 496.509 C 266.097 500.354, 263.282 504.175, 262.699 505 C 260.838 507.631, 342.341 426.316, 363.246 404.685 L 383.362 383.870 338.935 339.435 C 314.500 314.996, 294.237 295, 293.906 295 C 293.575 295, 284.914 303.138, 274.660 313.084" stroke="none" fill="#085bd5" fill-rule="evenodd"/><path d="M 230.992 24.749 L 206.500 49.499 227.856 28.499 C 247.910 8.780, 248.853 7.990, 243.329 15.536 C 215.803 53.135, 211.174 104.181, 231.506 145.914 C 240.248 163.856, 242.948 167.026, 288.432 212.764 L 331.455 256.029 307.478 280.249 C 294.290 293.571, 285.871 302.236, 288.768 299.505 L 294.036 294.539 338.759 339.261 L 383.481 383.984 372.998 394.742 C 367.232 400.659, 393.244 374.900, 430.802 337.500 C 468.360 300.100, 499.969 268.096, 501.046 266.380 C 503.658 262.215, 504.471 255.489, 503.028 249.990 C 501.943 245.854, 492.179 235.822, 379.184 122.750 C 311.718 55.237, 256.286 0, 256.002 0 C 255.717 0, 244.463 11.137, 230.992 24.749 M 73.509 181.943 C 39.468 216.011, 10.928 245.149, 10.088 246.693 C 7.993 250.542, 8.070 261.597, 10.220 265.500 C 11.128 267.150, 66.770 323.368, 133.867 390.430 C 244.934 501.437, 256.017 512.231, 257.589 510.930 C 261.697 507.530, 274.581 488.626, 279.553 478.706 C 296.956 443.982, 297.617 403.796, 281.372 368.149 C 273.084 349.964, 267.688 343.541, 222.583 298.171 L 180.500 255.843 204.500 232.180 C 217.700 219.165, 227.150 209.477, 225.500 210.651 C 223.850 211.824, 221.623 213.754, 220.552 214.940 L 218.604 217.095 173.821 172.321 L 129.038 127.546 132.722 123.773 C 134.748 121.698, 136.180 120, 135.904 120 C 135.628 120, 107.550 147.874, 73.509 181.943" stroke="none" fill="#2382fa" fill-rule="evenodd"/></svg>