<svg xmlns="http://www.w3.org/2000/svg" width="34" height="34" viewBox="0 0 300 300" version="1.1"><path d="M 110 79.828 C 104.225 81.337, 95.787 84.069, 91.249 85.899 L 82.998 89.226 77.942 97.596 C 67.911 114.203, 60.945 131.746, 56.873 150.660 C 55.163 158.602, 54.730 164.251, 54.627 179.948 L 54.500 199.396 60.500 203.666 C 67.422 208.593, 87.545 218.787, 96.895 222.105 L 103.290 224.374 105.395 221.729 C 106.553 220.275, 108.968 216.412, 110.762 213.144 L 114.023 207.204 106.003 203.440 C 98.570 199.952, 98.096 199.551, 99.534 197.962 C 100.993 196.350, 101.532 196.421, 108.540 199.142 C 123.671 205.017, 131.878 206.446, 150.500 206.446 C 169.122 206.446, 177.329 205.017, 192.460 199.142 C 199.468 196.421, 200.007 196.350, 201.466 197.962 C 202.904 199.551, 202.431 199.952, 195.003 203.437 L 186.988 207.198 190.003 212.849 C 191.662 215.957, 194.085 219.835, 195.389 221.468 L 197.759 224.435 206.629 221.099 C 217.933 216.848, 230.789 210.264, 239.598 204.216 L 246.500 199.477 246.811 185.988 C 247.530 154.834, 240.020 126.362, 223.948 99.302 L 217.891 89.103 210.029 86.072 C 201.069 82.616, 187.428 78.556, 181.447 77.563 L 177.393 76.891 175.143 81.695 L 172.892 86.500 150.500 86.500 L 128.108 86.500 125.883 81.750 C 124.579 78.967, 123.004 77.017, 122.079 77.041 C 121.211 77.064, 115.775 78.318, 110 79.828 M 113.637 139.453 C 105.181 142.493, 100.232 150.866, 101.343 160.250 C 103.358 177.262, 123.277 183.094, 132.060 169.244 C 135.542 163.754, 136.477 158.500, 134.977 152.863 C 132.132 142.175, 122.646 136.215, 113.637 139.453 M 177.500 139.481 C 169.658 142.257, 164.044 152.383, 165.516 161.097 C 166.456 166.660, 171.120 173.355, 175.506 175.436 C 186.387 180.599, 198.259 172.755, 199.763 159.409 C 201.230 146.399, 188.966 135.422, 177.500 139.481" stroke="none" fill="#fbfbfc" fill-rule="evenodd"/><path d="M 127.500 1.413 C 93.561 7.111, 66.477 21.119, 42.470 45.393 C 26.703 61.334, 14.555 81.125, 7.505 102.356 C 2.011 118.903, 0.864 125.853, 0.304 146 C -0.138 161.905, 0.082 166.113, 1.872 176 C 13.390 239.618, 62.792 288.199, 126.470 298.527 C 139.745 300.680, 163.169 300.448, 176.575 298.029 C 207.642 292.425, 233.201 278.933, 256.066 256.067 C 278.536 233.596, 292.284 208.211, 297.532 179.500 C 298.437 174.550, 299.588 169.466, 300.089 168.203 C 301.251 165.273, 301.290 132.297, 300.132 131.581 C 299.654 131.286, 298.961 128.764, 298.591 125.975 C 297.419 117.140, 293.026 101.828, 288.842 92 C 269.423 46.375, 229.805 13.729, 180.694 2.883 C 168.743 0.243, 139.312 -0.570, 127.500 1.413 M 110 79.828 C 104.225 81.337, 95.787 84.069, 91.249 85.899 L 82.998 89.226 77.942 97.596 C 67.911 114.203, 60.945 131.746, 56.873 150.660 C 55.163 158.602, 54.730 164.251, 54.627 179.948 L 54.500 199.396 60.500 203.666 C 67.422 208.593, 87.545 218.787, 96.895 222.105 L 103.290 224.374 105.395 221.729 C 106.553 220.275, 108.968 216.412, 110.762 213.144 L 114.023 207.204 106.003 203.440 C 98.570 199.952, 98.096 199.551, 99.534 197.962 C 100.993 196.350, 101.532 196.421, 108.540 199.142 C 123.671 205.017, 131.878 206.446, 150.500 206.446 C 169.122 206.446, 177.329 205.017, 192.460 199.142 C 199.468 196.421, 200.007 196.350, 201.466 197.962 C 202.904 199.551, 202.431 199.952, 195.003 203.437 L 186.988 207.198 190.003 212.849 C 191.662 215.957, 194.085 219.835, 195.389 221.468 L 197.759 224.435 206.629 221.099 C 217.933 216.848, 230.789 210.264, 239.598 204.216 L 246.500 199.477 246.811 185.988 C 247.530 154.834, 240.020 126.362, 223.948 99.302 L 217.891 89.103 210.029 86.072 C 201.069 82.616, 187.428 78.556, 181.447 77.563 L 177.393 76.891 175.143 81.695 L 172.892 86.500 150.500 86.500 L 128.108 86.500 125.883 81.750 C 124.579 78.967, 123.004 77.017, 122.079 77.041 C 121.211 77.064, 115.775 78.318, 110 79.828 M 0.413 150.500 C 0.414 160.400, 0.564 164.315, 0.746 159.199 C 0.928 154.084, 0.927 145.984, 0.744 141.199 C 0.561 136.415, 0.412 140.600, 0.413 150.500 M 113.637 139.453 C 105.181 142.493, 100.232 150.866, 101.343 160.250 C 103.358 177.262, 123.277 183.094, 132.060 169.244 C 135.542 163.754, 136.477 158.500, 134.977 152.863 C 132.132 142.175, 122.646 136.215, 113.637 139.453 M 177.500 139.481 C 169.658 142.257, 164.044 152.383, 165.516 161.097 C 166.456 166.660, 171.120 173.355, 175.506 175.436 C 186.387 180.599, 198.259 172.755, 199.763 159.409 C 201.230 146.399, 188.966 135.422, 177.500 139.481" stroke="none" fill="#5c64f4" fill-rule="evenodd"/></svg>