<svg xmlns="http://www.w3.org/2000/svg" width="3840" height="2160" viewBox="0 0 3840 2160" version="1.1"><path d="M 1600.922 450.497 C 1598.535 455.968, 1419.787 895.516, 1409.790 920.500 C 1370.171 1019.507, 1363.773 1045.394, 1364.436 1104 C 1364.651 1122.925, 1365.175 1131.950, 1366.470 1139 C 1372.572 1172.211, 1383.476 1198.286, 1400.971 1221.500 C 1407.340 1229.952, 1423.649 1245.706, 1432.994 1252.434 C 1467.849 1277.530, 1515.930 1286.991, 1560 1277.425 C 1573.212 1274.557, 1594.882 1265.526, 1610.805 1256.253 L 1615.110 1253.745 1604.084 1242.623 C 1575.223 1213.508, 1559.911 1186.113, 1553.992 1153 C 1551.646 1139.872, 1551.906 1108.394, 1554.496 1092 C 1559.896 1057.824, 1580.613 997.951, 1625.256 887.500 C 1639.932 851.189, 1649.634 827.170, 1670.695 775 C 1677.023 759.325, 1686.880 734.913, 1692.600 720.750 C 1698.320 706.587, 1707.770 683.188, 1713.601 668.750 C 1719.431 654.313, 1728.475 631.925, 1733.697 619 C 1738.920 606.075, 1748.823 581.550, 1755.704 564.500 C 1762.586 547.450, 1775.874 514.600, 1785.234 491.500 C 1794.594 468.400, 1802.308 448.836, 1802.376 448.025 C 1802.485 446.735, 1790.013 446.547, 1702.584 446.523 L 1602.669 446.495 1600.922 450.497 M 1846.012 447.497 C 1845.560 448.049, 1804.381 549.750, 1754.504 673.500 C 1704.626 797.250, 1659.098 910.200, 1653.331 924.500 C 1625.198 994.261, 1607.137 1041.431, 1599.727 1064.500 C 1593.388 1084.236, 1591.922 1093.718, 1591.297 1119 C 1590.833 1137.804, 1591.027 1142.024, 1592.845 1152.652 C 1595.255 1166.737, 1600.967 1183.169, 1607.479 1194.748 C 1618.075 1213.591, 1642.025 1242.972, 1645.653 1241.580 C 1646.416 1241.287, 1649.843 1239.157, 1653.270 1236.846 C 1683.278 1216.607, 1714.700 1188.301, 1734.133 1164 C 1757.988 1134.170, 1782.094 1091.332, 1811.227 1027 C 1829.836 985.908, 1830.390 984.554, 1912.735 779 C 1952.064 680.825, 1998.079 565.962, 2014.991 523.750 C 2031.903 481.538, 2045.461 446.944, 2045.120 446.876 C 2044.779 446.807, 2000.025 446.694, 1945.667 446.623 C 1880.669 446.539, 1846.553 446.838, 1846.012 447.497 M 2395.652 1456.682 C 2395.551 1456.782, 2371.851 1457.007, 2342.985 1457.182 C 2314.118 1457.357, 2282.512 1457.633, 2272.750 1457.795 L 2255 1458.089 2255 1584.545 L 2255 1711 2289.500 1711 L 2324 1711 2324 1666.978 L 2324 1622.955 2361.750 1623.088 C 2407.583 1623.249, 2421.013 1624.390, 2429.500 1628.842 C 2431.150 1629.708, 2432.725 1630.436, 2433 1630.461 C 2435.338 1630.673, 2441.259 1637.108, 2443.853 1642.257 C 2448.395 1651.275, 2449 1656.318, 2449 1685.136 L 2449 1711 2480.040 1711 L 2511.079 1711 2510.790 1667.250 L 2510.500 1623.500 2507.648 1617.873 C 2504.846 1612.342, 2497.159 1603.477, 2489.729 1597.206 L 2485.957 1594.024 2491.956 1586.475 C 2504.811 1570.299, 2510.398 1557.278, 2511.849 1540.113 C 2514.171 1512.653, 2508.261 1493.023, 2493.115 1477.892 C 2476.769 1461.560, 2454.245 1455.446, 2413.167 1456.187 C 2403.635 1456.359, 2395.753 1456.582, 2395.652 1456.682 M 43.891 1513.250 C 43.710 1606.508, 44.187 1623.126, 47.651 1644.402 C 48.555 1649.956, 49.391 1655.175, 49.509 1656 C 49.626 1656.825, 50.077 1658.400, 50.510 1659.500 C 50.943 1660.600, 52.324 1664.088, 53.579 1667.250 C 54.833 1670.412, 55.649 1673, 55.391 1673 C 55.132 1673, 55.401 1673.563, 55.987 1674.250 C 56.573 1674.938, 58.366 1677.536, 59.971 1680.025 C 67.611 1691.867, 83.407 1702.110, 100 1705.979 C 103.025 1706.685, 105.991 1707.649, 106.592 1708.122 C 107.193 1708.595, 107.907 1708.759, 108.180 1708.487 C 108.453 1708.214, 111.112 1708.472, 114.088 1709.062 C 117.065 1709.651, 121.525 1710.309, 124 1710.524 C 126.475 1710.739, 130.300 1711.165, 132.500 1711.471 C 144.224 1713.099, 206.990 1714.005, 217 1712.691 C 219.475 1712.366, 226.450 1711.562, 232.500 1710.903 C 246.536 1709.376, 251.438 1708.415, 262.774 1704.966 C 291.251 1696.303, 308.373 1677.872, 316.116 1647.546 C 321.074 1628.127, 321.303 1623.639, 321.728 1537.750 L 322.127 1457 289.064 1457 L 256 1457 255.999 1518.750 C 255.999 1588.020, 255.711 1598.764, 253.526 1611.233 C 247.184 1647.425, 229.817 1657.623, 176.500 1656.464 C 134.982 1655.561, 119.541 1648.442, 112.972 1627.174 C 111.883 1623.648, 110.721 1617.554, 110.390 1613.632 C 110.059 1609.709, 109.644 1605.600, 109.468 1604.500 C 109.292 1603.400, 109.115 1569.763, 109.074 1529.750 L 109 1457 76.500 1457 L 44 1457 43.891 1513.250 M 377.398 1584.423 L 377.401 1711 409.001 1711 L 440.601 1711 440.551 1614.405 C 440.523 1561.277, 440.778 1517.359, 441.118 1516.809 C 441.523 1516.154, 459.989 1515.953, 494.618 1516.227 C 541.159 1516.596, 548.399 1516.862, 555 1518.446 C 572.439 1522.633, 579.518 1530.272, 583.081 1548.751 C 583.805 1552.506, 584.362 1581.645, 584.687 1632.750 L 585.184 1711 616.605 1711 L 648.026 1711 647.898 1639.750 C 647.828 1600.563, 647.370 1563.550, 646.880 1557.500 C 643.450 1515.107, 631.835 1490.554, 608.393 1476.144 C 597.132 1469.221, 577.570 1463.124, 560 1461.060 C 555.325 1460.511, 549.475 1459.770, 547 1459.414 C 544.525 1459.058, 505.351 1458.560, 459.948 1458.306 L 377.395 1457.846 377.398 1584.423 M 704 1584.500 L 704 1711 736.500 1711 L 769 1711 769 1584.500 L 769 1458 736.500 1458 L 704 1458 704 1584.500 M 797 1487 L 797 1516 843 1516 L 889 1516 889 1613.500 L 889 1711 922.500 1711 L 956 1711 956 1613.500 L 956 1516 1000.500 1516 L 1045 1516 1045 1487 L 1045 1458 921 1458 L 797 1458 797 1487 M 1153.056 1459.113 C 1104.939 1463.384, 1081.504 1480.237, 1070.515 1518.470 C 1065.172 1537.061, 1063.461 1554.571, 1063.575 1589.500 C 1063.655 1614.178, 1064.821 1627.912, 1068.117 1643 C 1069.259 1648.225, 1070.246 1653.287, 1070.310 1654.250 C 1070.375 1655.213, 1070.782 1656, 1071.214 1656 C 1071.646 1656, 1071.929 1656.338, 1071.841 1656.750 C 1071.616 1657.812, 1072.657 1660.319, 1077.337 1669.987 C 1085.400 1686.643, 1101.680 1699.395, 1121.974 1704.951 C 1130.594 1707.311, 1148.291 1710.056, 1157.304 1710.431 C 1160.712 1710.573, 1163.950 1710.813, 1164.500 1710.963 C 1165.050 1711.114, 1199.813 1711.184, 1241.750 1711.118 L 1318 1711 1318 1685 L 1318 1659 1246.750 1658.994 C 1204.936 1658.991, 1173.021 1658.583, 1169.500 1658.007 C 1155.066 1655.647, 1146.605 1651.232, 1139.332 1642.266 C 1134.778 1636.651, 1132.497 1630.514, 1131.418 1620.977 L 1130.742 1615 1224.371 1615 L 1318 1615 1318 1585 L 1318 1555 1224.362 1555 L 1130.725 1555 1131.396 1549.250 C 1132.374 1540.872, 1133.647 1536.826, 1136.769 1532.178 C 1141.278 1525.464, 1149.614 1520.301, 1158.895 1518.474 C 1163.279 1517.611, 1176.997 1515.919, 1178.286 1516.083 C 1178.954 1516.168, 1210.662 1516.184, 1248.750 1516.118 L 1318 1516 1318 1487 L 1318 1458 1240.250 1458.138 C 1197.487 1458.213, 1158.250 1458.652, 1153.056 1459.113 M 1373 1584.500 L 1373 1711 1451.750 1711.118 C 1495.063 1711.184, 1530.950 1711.119, 1531.500 1710.975 C 1532.050 1710.830, 1536.382 1710.565, 1541.126 1710.384 C 1554.715 1709.866, 1569.711 1708.623, 1574.784 1707.593 C 1576.278 1707.289, 1578.711 1706.841, 1580.190 1706.598 C 1587.672 1705.364, 1599.480 1701.435, 1607.792 1697.412 C 1638.232 1682.679, 1651.300 1652.192, 1652.381 1593.384 C 1653.958 1507.646, 1631.821 1472.121, 1570.236 1461.558 C 1552.644 1458.541, 1535.017 1458, 1454.355 1458 L 1373 1458 1373 1584.500 M 1857.571 1580.755 C 1825.160 1648.265, 1797.813 1705.188, 1796.801 1707.250 L 1794.959 1711 1830.730 1710.957 L 1866.500 1710.914 1880.600 1687.207 L 1894.700 1663.500 1951.155 1663.242 L 2007.611 1662.984 2018.652 1686.742 L 2029.693 1710.500 2065.922 1710.763 C 2097.197 1710.989, 2102.107 1710.826, 2101.826 1709.571 C 2101.647 1708.771, 2074.078 1651.840, 2040.562 1583.058 L 1979.624 1458 1948.062 1458.005 L 1916.500 1458.010 1857.571 1580.755 M 2129 1584.500 L 2129 1711 2161 1711 C 2178.600 1711, 2193.067 1710.662, 2193.149 1710.250 C 2193.231 1709.838, 2193.368 1652.912, 2193.452 1583.750 L 2193.606 1458 2161.303 1458 L 2129 1458 2129 1584.500 M 2571 1584.500 L 2571 1711 2665.500 1711 L 2760 1711 2760 1686.500 L 2760 1662 2696 1662 L 2632 1662 2632 1560 L 2632 1458 2601.500 1458 L 2571 1458 2571 1584.500 M 2794 1584.500 L 2794 1711 2823 1711 L 2852 1711 2852 1584.500 L 2852 1458 2823 1458 L 2794 1458 2794 1584.500 M 2920 1584.438 L 2920 1711 2950 1711 L 2980 1711 2980 1613.401 L 2980 1515.801 3033.250 1516.304 C 3087.691 1516.817, 3090.639 1517.022, 3103.377 1521.179 C 3113.472 1524.473, 3123.062 1533.892, 3124.279 1541.711 C 3124.432 1542.695, 3124.865 1543.991, 3125.240 1544.592 C 3127.763 1548.628, 3128.253 1561.368, 3128.691 1634.250 L 3129.152 1711 3159.639 1711 L 3190.126 1711 3189.700 1625.750 C 3189.252 1536.271, 3189.243 1536.062, 3184.641 1518.500 C 3176.930 1489.069, 3159.407 1471.804, 3129.371 1464.043 C 3109.076 1458.798, 3106.896 1458.693, 3010.250 1458.270 L 2920 1457.876 2920 1584.438 M 3325 1458.701 C 3307.374 1459.985, 3288.047 1464.431, 3277.985 1469.514 C 3253.558 1481.856, 3240.014 1507.728, 3236.114 1549.500 C 3233.247 1580.202, 3233.225 1601.169, 3236.037 1623.798 C 3240.741 1661.654, 3254.455 1684.708, 3279.615 1697.056 C 3285.255 1699.825, 3290.687 1702.250, 3291.685 1702.446 C 3292.683 1702.642, 3296.303 1703.531, 3299.729 1704.423 C 3308.467 1706.697, 3315.594 1708.047, 3322 1708.641 C 3325.025 1708.922, 3331.325 1709.507, 3336 1709.940 C 3340.675 1710.374, 3376.338 1710.808, 3415.250 1710.905 L 3486 1711.081 3486 1683.541 L 3486 1656 3422.750 1655.972 C 3358.730 1655.944, 3349.670 1655.721, 3338.035 1653.886 C 3314.708 1650.207, 3303.821 1638.252, 3301.484 1613.750 L 3300.841 1607 3393.420 1607 L 3486 1607 3486 1580.500 L 3486 1554 3393.466 1554 L 3300.931 1554 3301.529 1548.750 C 3302.909 1536.624, 3306.203 1528.854, 3311.925 1524.226 C 3314.892 1521.826, 3322.558 1518.190, 3326.030 1517.536 C 3327.938 1517.176, 3330.625 1516.627, 3332 1516.317 C 3333.375 1516.006, 3368.475 1515.674, 3410 1515.579 L 3485.500 1515.406 3485.765 1486.692 L 3486.031 1457.977 3407.765 1458.175 C 3364.719 1458.284, 3327.475 1458.520, 3325 1458.701 M 3595 1459.117 C 3575.030 1461.345, 3560.246 1467.040, 3551.357 1475.929 C 3539.096 1488.189, 3533.845 1505.924, 3533.865 1535 C 3533.888 1569.785, 3543.209 1587.846, 3567.051 1599.302 C 3586.218 1608.512, 3597.791 1609.895, 3659.500 1610.353 C 3699.024 1610.646, 3706.274 1610.931, 3711 1612.371 C 3714.025 1613.294, 3717.071 1614.177, 3717.770 1614.336 C 3718.468 1614.494, 3720.802 1615.720, 3722.955 1617.062 C 3728.339 1620.414, 3731 1625.432, 3731 1632.229 C 3731 1643.595, 3724.048 1650.335, 3708.874 1653.677 C 3702.510 1655.079, 3690.646 1655.358, 3622.250 1655.716 L 3543 1656.129 3543 1683.565 L 3543 1711 3622.750 1711.118 C 3666.613 1711.184, 3702.950 1711.108, 3703.500 1710.951 C 3704.050 1710.793, 3708.100 1710.528, 3712.500 1710.360 C 3721.840 1710.005, 3729.574 1709.295, 3740 1707.837 C 3749.380 1706.525, 3749.593 1706.479, 3754.750 1704.620 C 3757.088 1703.778, 3759 1703.276, 3759 1703.504 C 3759 1703.732, 3762.201 1702.293, 3766.113 1700.305 C 3779.368 1693.571, 3788.265 1681.907, 3792.386 1665.857 C 3796.663 1649.199, 3797.029 1612.951, 3793.074 1597.686 C 3787.085 1574.573, 3774.039 1564.373, 3744 1559.318 C 3736.536 1558.062, 3724.642 1557.639, 3688.500 1557.343 C 3624.369 1556.819, 3614.469 1555.522, 3605.400 1546.453 C 3600.704 1541.757, 3599.381 1537.653, 3600.315 1530.687 C 3601.371 1522.813, 3610.213 1517.641, 3624.503 1516.539 C 3627.801 1516.285, 3664.813 1516.060, 3706.750 1516.038 L 3783 1516 3783 1486.990 L 3783 1457.980 3692.750 1458.130 C 3643.113 1458.213, 3599.125 1458.657, 3595 1459.117 M 1444 1587.554 L 1444 1659.300 1489.250 1658.652 C 1536.569 1657.973, 1545.797 1657.233, 1558.104 1653.126 C 1572.049 1648.472, 1579.600 1638.873, 1582.589 1622 C 1584.903 1608.937, 1584.785 1553.698, 1582.435 1549.896 C 1581.916 1549.055, 1581.548 1547.646, 1580.407 1542.129 C 1579.570 1538.079, 1575.884 1531.643, 1572.509 1528.338 C 1568.889 1524.793, 1560.970 1520.486, 1556.470 1519.614 C 1554.837 1519.298, 1551.475 1518.540, 1549 1517.931 C 1546.167 1517.234, 1525.881 1516.635, 1494.250 1516.315 L 1444 1515.808 1444 1587.554 M 2324 1540.081 L 2324 1561.162 2373.750 1560.753 C 2426.794 1560.318, 2428.946 1560.129, 2438.930 1555.036 C 2450.374 1549.197, 2450.934 1530.138, 2439.851 1523.659 C 2432.729 1519.495, 2425.864 1519.016, 2373.250 1519.008 L 2324 1519 2324 1540.081 M 1934.143 1569.143 C 1925.244 1589.027, 1918.127 1605.461, 1918.329 1605.662 C 1918.530 1605.863, 1933.140 1605.909, 1950.795 1605.764 L 1982.894 1605.500 1977.108 1592.500 C 1973.925 1585.350, 1969.899 1576.431, 1968.161 1572.680 C 1966.422 1568.929, 1965 1565.442, 1965 1564.930 C 1965 1564.419, 1964.625 1564, 1964.167 1564 C 1963.708 1564, 1963.319 1563.438, 1963.302 1562.750 C 1963.275 1561.709, 1951.334 1534.035, 1950.570 1533.245 C 1950.434 1533.105, 1943.042 1549.259, 1934.143 1569.143" stroke="none" fill="#040404" fill-rule="evenodd"/><path d="M 2083.578 447.874 C 2083.281 448.354, 2069.265 482.891, 2052.431 524.624 C 2035.598 566.356, 2016.282 614.225, 2009.509 631 C 2002.735 647.775, 1970.865 726.750, 1938.686 806.500 C 1865.505 987.869, 1856.415 1009.518, 1830.399 1064.400 C 1797.611 1133.570, 1770.310 1175.088, 1735.190 1209.193 C 1710.619 1233.053, 1689.622 1247.731, 1656 1264.553 C 1635.890 1274.615, 1623.012 1280.200, 1599.501 1289.057 C 1585.702 1294.255, 1582.085 1295.966, 1584.001 1296.388 C 1587.571 1297.175, 1624.705 1299.999, 1643 1300.874 C 1702.735 1303.732, 1760.118 1295.066, 1812 1275.351 C 1841.943 1263.974, 1879.058 1243.813, 1905.205 1224.725 C 1941.043 1198.562, 1974.456 1163.952, 1997.300 1129.334 C 2022.698 1090.843, 2048.340 1037.107, 2090.371 934.290 C 2111.690 882.140, 2287.012 452.029, 2288.083 449.250 L 2288.950 447 2186.534 447 C 2129.222 447, 2083.880 447.385, 2083.578 447.874 M 2286.271 543.750 C 2264.725 596.962, 2223.868 697.875, 2195.477 768 C 2127.984 934.703, 2117.729 959.854, 2108.130 982.226 C 2076.435 1056.098, 2047.317 1113.508, 2022.529 1151 C 1984.455 1208.588, 1932.757 1256.082, 1872.254 1289.057 L 1859.795 1295.847 1864.148 1296.471 C 1880.081 1298.757, 1930.785 1299.037, 1954.500 1296.971 C 2033.341 1290.101, 2095.107 1267.135, 2147.625 1225.163 C 2210.424 1174.975, 2258.726 1104.250, 2311.984 984.500 C 2317.610 971.850, 2368.337 846.075, 2424.709 705 C 2481.082 563.925, 2527.410 448.163, 2527.662 447.750 C 2527.913 447.337, 2482.517 447, 2426.781 447 L 2325.445 447 2286.271 543.750" stroke="none" fill="#fc0404" fill-rule="evenodd"/></svg>